<?xml version="1.0" encoding="iso-8859-1"?>
<!-- Uploaded to: SVG Repo, www.svgrepo.com, Generator: SVG Repo Mixer Tools -->
<svg fill="#000000" height="800px" width="800px" version="1.1" id="Layer_1" xmlns="http://www.w3.org/2000/svg" xmlns:xlink="http://www.w3.org/1999/xlink" 
	 viewBox="0 0 512 512" xml:space="preserve">
<g>
	<g>
		<path d="M431.02,0H80.98C65.136,0,52.245,12.891,52.245,28.735v457.143h38.922V512h44.49l10.449-26.122h219.788L376.343,512h44.49
			v-26.122h38.922V28.735C459.755,12.891,446.864,0,431.02,0z M125.045,496.327h-18.204v-10.449h22.384L125.045,496.327z
			 M405.159,496.327h-18.204l-4.18-10.449h22.384V496.327z M444.082,470.204H67.918V105.398
			C116.29,129.817,183.861,143.673,256,143.673s139.71-13.857,188.082-38.276V470.204z M444.082,87.689
			C397.616,113.343,329.427,128,256,128S114.384,113.343,67.918,87.689V28.735c0-7.202,5.859-13.061,13.061-13.061H431.02
			c7.203,0,13.061,5.859,13.061,13.061V87.689z"/>
	</g>
</g>
<g>
	<g>
		<path d="M298.841,25.6h-85.682c-10.082,0-18.286,8.203-18.286,18.286v42.841c0,10.082,8.203,18.286,18.286,18.286h85.682
			c10.082,0,18.286-8.203,18.286-18.286V43.886C317.127,33.804,308.923,25.6,298.841,25.6z M301.453,86.727
			c0,1.441-1.171,2.612-2.612,2.612h-85.682c-1.441,0-2.612-1.171-2.612-2.612V43.886c0-1.441,1.171-2.612,2.612-2.612h85.682
			c1.441,0,2.612,1.171,2.612,2.612V86.727z"/>
	</g>
</g>
<g>
	<g>
		<path d="M145.27,83.655c-6.406,4.194-14.372,4.771-21.3,1.539c-6.931-3.233-11.609-9.703-12.516-17.309L95.89,69.738
			c1.552,13.032,9.572,24.119,21.454,29.661c5.101,2.377,10.524,3.554,15.924,3.554c7.182,0,14.32-2.082,20.588-6.186L145.27,83.655
			z"/>
	</g>
</g>
<g>
	<g>
		<path d="M169.901,73.754c0.975-4.213,1.216-8.569,0.693-12.879c-1.552-13.031-9.572-24.119-21.454-29.661
			c-11.884-5.541-25.533-4.558-36.497,2.622c-3.648,2.376-6.833,5.363-9.435,8.819l-9.267-4.322l-6.625,14.204l85.229,39.743
			l6.625-14.203L169.901,73.754z M155.125,66.862l-37.14-17.318c0.99-0.956,2.065-1.829,3.229-2.587
			c6.408-4.193,14.37-4.769,21.302-1.539c6.931,3.233,11.609,9.703,12.517,17.326C155.199,64.115,155.222,65.493,155.125,66.862z"/>
	</g>
</g>
<g>
	<g>
		<path d="M348.752,41.535c-13.827,0-25.078,11.25-25.078,25.078s11.249,25.078,25.078,25.078c13.827,0,25.078-11.25,25.078-25.078
			S362.58,41.535,348.752,41.535z M348.752,76.016c-5.186,0-9.404-4.218-9.404-9.404c0-5.186,4.218-9.404,9.404-9.404
			s9.404,4.218,9.404,9.404C358.157,71.798,353.938,76.016,348.752,76.016z"/>
	</g>
</g>
<g>
	<g>
		<path d="M404.132,41.535c-13.827,0-25.078,11.25-25.078,25.078s11.249,25.078,25.078,25.078c13.827,0,25.078-11.25,25.078-25.078
			S417.959,41.535,404.132,41.535z M404.132,76.016c-5.186,0-9.404-4.218-9.404-9.404c0-5.186,4.218-9.404,9.404-9.404
			c5.186,0,9.404,4.218,9.404,9.404C413.536,71.798,409.318,76.016,404.132,76.016z"/>
	</g>
</g>
<g>
	<g>
		<path d="M256,173.976c-60.992,0-112.195,42.708-125.281,99.788h-13.095c-7.687,0-14.905,2.993-20.317,8.419
			c-5.427,5.428-8.418,12.644-8.418,20.316c0,15.844,12.891,28.735,28.735,28.735h13.095c13.086,57.08,64.289,99.788,125.281,99.788
			c70.867,0,128.522-57.655,128.522-128.522C384.522,231.631,326.867,173.976,256,173.976z M128.137,315.559h-10.513
			c-7.202,0-13.061-5.859-13.061-13.061c0-3.486,1.359-6.766,3.835-9.241c2.458-2.464,5.733-3.82,9.226-3.82h10.513
			c-0.436,4.296-0.659,8.653-0.659,13.061C127.478,306.906,127.701,311.264,128.137,315.559z M256,415.347
			c-62.226,0-112.849-50.623-112.849-112.849c0-62.226,50.623-112.849,112.849-112.849s112.849,50.623,112.849,112.849
			C368.849,364.724,318.226,415.347,256,415.347z"/>
	</g>
</g>
<g>
	<g>
		<path d="M256,205.845c-53.295,0-96.653,43.358-96.653,96.653c0,53.295,43.358,96.653,96.653,96.653s96.653-43.358,96.653-96.653
			C352.653,249.203,309.295,205.845,256,205.845z M256,383.478c-44.652,0-80.98-36.328-80.98-80.98
			c0-44.652,36.328-80.98,80.98-80.98s80.98,36.328,80.98,80.98C336.98,347.15,300.652,383.478,256,383.478z"/>
	</g>
</g>
</svg>